<svg width="32" height="32" viewBox="0 0 32 32" fill="none" xmlns="http://www.w3.org/2000/svg">
<g clip-path="url(#clip0_484_65)">
<path d="M32 16C32 24.8366 24.8366 32 16 32C7.16344 32 0 24.8366 0 16C0 7.16344 7.16344 0 16 0C24.8366 0 32 7.16344 32 16Z" fill="#1F2937"/>
<path fill-rule="evenodd" clip-rule="evenodd" d="M24.6994 7.13525C23.9662 6.39259 22.8403 6.48399 21.8166 6.80672C20.7323 7.14854 19.436 7.84599 18.0219 8.80003C17.6963 9.01967 17.6104 9.46166 17.8301 9.78723C18.0497 10.1128 18.4917 10.1987 18.8173 9.97903C20.1838 9.05708 21.3491 8.44531 22.2442 8.16313C23.1991 7.8621 23.5693 8.01458 23.6877 8.13484L23.6915 8.13875C23.7698 8.21705 23.8937 8.45525 23.771 9.07963C23.6535 9.67759 23.3371 10.4626 22.8157 11.3928C21.7779 13.2441 20.0128 15.5222 17.7813 17.7799C15.5534 20.034 13.2779 21.7969 11.4225 22.827C10.4904 23.3445 9.70094 23.6564 9.09906 23.7704C8.47001 23.8895 8.22612 23.7645 8.14596 23.6843C8.08995 23.6283 8.0085 23.495 8.0114 23.1743C8.01433 22.8515 8.10475 22.412 8.31097 21.8598C8.72204 20.759 9.53702 19.357 10.6989 17.8166C10.9354 17.503 10.8729 17.0571 10.5593 16.8207C10.2458 16.5842 9.7999 16.6466 9.56341 16.9602C8.35699 18.5597 7.45564 20.0848 6.97862 21.3622C6.74079 21.9991 6.59422 22.6116 6.58924 23.1615C6.58424 23.7135 6.72399 24.2737 7.1403 24.69C7.72539 25.2751 8.57915 25.3164 9.36374 25.1678C10.1755 25.014 11.1157 24.6241 12.1128 24.0705C14.1158 22.9585 16.497 21.1025 18.7928 18.7797C21.0849 16.4606 22.9387 14.0819 24.0563 12.0882C24.6126 11.0958 25.008 10.1611 25.1666 9.35378C25.3198 8.57379 25.2842 7.72213 24.6994 7.13525Z" fill="white"/>
<path fill-rule="evenodd" clip-rule="evenodd" d="M20.1754 11.1317C19.0313 10.2736 17.616 9.85704 16.1894 9.95842C14.7629 10.0598 13.4208 10.6724 12.4095 11.6836C11.3982 12.6949 10.7856 14.0371 10.6842 15.4636C10.5829 16.8902 10.9995 18.3055 11.8576 19.4496C12.0932 19.7638 12.0295 20.2095 11.7153 20.4451C11.4012 20.6808 10.9554 20.6171 10.7198 20.3029C9.65628 18.8849 9.13995 17.1309 9.26561 15.3628C9.39126 13.5947 10.1505 11.9313 11.4038 10.678C12.6572 9.42462 14.3206 8.66543 16.0886 8.53978C17.8567 8.41412 19.6107 8.93045 21.0287 9.99396C21.3429 10.2296 21.4066 10.6753 21.171 10.9895C20.9353 11.3037 20.4896 11.3674 20.1754 11.1317ZM22.3685 12.4707C22.7257 12.3073 23.1476 12.4644 23.311 12.8216C23.8243 13.9437 24.0474 15.1769 23.9598 16.4077C23.8722 17.6386 23.4766 18.8277 22.8095 19.8658C22.1423 20.9039 21.225 21.7577 20.1418 22.3487C19.0586 22.9397 17.8443 23.2491 16.6104 23.2483C15.6259 23.2487 14.6511 23.0537 13.7424 22.6746C13.3799 22.5234 13.2087 22.107 13.3599 21.7446C13.5111 21.3821 13.9275 21.2108 14.2899 21.362C15.0251 21.6687 15.8138 21.8264 16.6103 21.8261H16.6111C17.6067 21.8267 18.5866 21.5772 19.4606 21.1003C20.3346 20.6234 21.0747 19.9345 21.613 19.0969C22.1513 18.2593 22.4705 17.2999 22.5412 16.3067C22.6119 15.3136 22.4319 14.3186 22.0177 13.4132C21.8543 13.0561 22.0114 12.6341 22.3685 12.4707ZM16.6104 23.2483C16.6104 23.2483 16.6103 23.2483 16.6102 23.2483L16.6106 22.5372L16.6109 23.2483C16.6107 23.2483 16.6106 23.2483 16.6104 23.2483Z" fill="white"/>
</g>
<defs>
<clipPath id="clip0_484_65">
<rect width="32" height="32" fill="white"/>
</clipPath>
</defs>
</svg>
